# xmcd CD database file
#
# Track frame offsets:
#	150
#	26500
#	54942
#	83366
#	97404
#	135536
#
# Disc length: 2102 seconds
#
# Revision: 0
# Processed by: cddbd v1.5.2PL0 Copyright (c) Steve Scherf et al.
# Submitted via: CDex 1.78
#
DISCID=41083406
DTITLE=Matt Woosey - Draw A Line - The Collection - Disc 1 of 5 - Matt Woosey and The Strange Rain
DYEAR=2009
DGENRE=Blues
TTITLE0=England Air
TTITLE1=Irene
TTITLE2=Neon To Wood
TTITLE3=Nothing But A Woman
TTITLE4=Strange Rain
TTITLE5=Walkin The Blues
EXTD=YEAR: 2009
EXTT0=
EXTT1=
EXTT2=
EXTT3=
EXTT4=
EXTT5=
PLAYORDER=
